<svg width="500" height="500" viewBox="0 0 500 500" fill="none" xmlns="http://www.w3.org/2000/svg">
<path d="M0 250H250V500H50C22.3858 500 0 477.614 0 450V250Z" fill="#C7C7C7"/>
<path d="M0 50C0 22.3858 22.3858 0 50 0H250V250H0V50Z" fill="white"/>
<path d="M250 0H450C477.614 0 500 22.3858 500 50V250H250V0Z" fill="#C7C7C7"/>
<path d="M250 250H500V450C500 477.614 477.614 500 450 500H250V250Z" fill="white"/>
<rect x="240" y="237" width="20" height="223" rx="10" fill="black"/>
<rect x="150" y="460" width="20" height="200" rx="10" transform="rotate(-90 150 460)" fill="black"/>
<rect x="78" y="97" width="20" height="344" rx="10" transform="rotate(-90 78 97)" fill="black"/>
<path d="M250 253L123.56 125.5L376.44 125.5L250 253Z" fill="#55B3FF"/>
<rect x="73" y="87.1421" width="20" height="250" rx="10" transform="rotate(-45 73 87.1421)" fill="black"/>
<rect x="412.777" y="73" width="20" height="250" rx="10" transform="rotate(45 412.777 73)" fill="black"/>
</svg>
